
		<svg width="2705.570275098244" height="2800" xmlns="http://www.w3.org/2000/svg" xmlns:xlink="http://www.w3.org/1999/xlink" version="1.1">
            <g transform="scale(28.41985332551831) translate(10, 10)">
				<g id="SvgjsG1009" transform="translate(2.2411348936657306e-7, 0) scale(1.5040001678466797)" rel="inversefill" name="monogram_container" xmlns:name="monogram_container_inversefill" fill="#0e5d88">   <title>assets</title>   <path d="M5,0H50a0,0,0,0,1,0,0V45a5,5,0,0,1-5,5H0a0,0,0,0,1,0,0V5A5,5,0,0,1,5,0Z"/> </g><defs id="SvgjsDefs1002"/><g id="SvgjsG1010" rel="symbolfill" name="monogram" xmlns:name="monogram_symbolfill" fill="#ffffff" transform="translate(21.920003768652702, 1.2000160217285156)"><path d="M9.632 47.544 q0.28 0.112 0.476 0.224 t0.476 0.224 l-5.768 5.768 q-0.168 -0.168 -0.364 -0.308 t-0.364 -0.308 z M13.608 24.64 l7.728 -7.728 l0.56 0.112 l0.56 0.112 l-7.448 7.504 l-1.4 0 z M21.84 25.368 q-0.224 -0.168 -0.42 -0.28 t-0.476 -0.224 l5.712 -5.712 q0.224 0.168 0.392 0.336 t0.392 0.336 z M22.792 26.32 q-0.224 -0.392 -0.672 -0.728 l5.544 -5.544 q0.224 0.168 0.392 0.336 l0.336 0.336 z M23.408 27.608 q-0.112 -0.28 -0.196 -0.504 t-0.196 -0.504 l5.6 -5.6 q0.168 0.224 0.308 0.392 t0.308 0.392 z M31.304 27.776 q0.056 0.224 0.056 0.784 l0 1.96 l-7.84 0 l0 -1.96 q0 -0.336 -0.056 -0.504 l5.936 -5.936 q0.168 0.224 0.308 0.42 t0.252 0.42 l-5.6 5.6 l0.504 0 l5.264 -5.264 q0.112 0.28 0.196 0.476 t0.196 0.476 l-4.256 4.312 l0.448 0 l3.976 -3.92 q0.112 0.28 0.168 0.532 t0.168 0.532 l-2.912 2.856 l0.504 0 l2.464 -2.464 q0.112 0.448 0.224 1.232 l-1.288 1.232 l0.504 0 z M19.264 24.64 l6.272 -6.216 q0.224 0.112 0.42 0.252 t0.42 0.308 l-5.824 5.768 q-0.56 -0.112 -0.952 -0.112 l-0.336 0 z M15.512 24.64 l7.336 -7.392 q0.672 0.168 1.064 0.392 l-7 7 l-1.4 0 z M17.416 24.64 l6.832 -6.888 q0.28 0.112 0.504 0.224 l0.448 0.224 l-6.44 6.44 l-1.344 0 z M7.84 44.24 q0 0.504 0.056 0.728 l-5.88 5.88 l-0.504 -0.84 l5.768 -5.768 l-0.504 0 l-5.432 5.432 q-0.28 -0.504 -0.448 -0.952 l4.48 -4.48 l-0.504 0 l-4.144 4.144 q-0.112 -0.28 -0.168 -0.532 t-0.168 -0.532 l3.08 -3.08 l-0.504 0 l-2.688 2.688 l-0.168 -1.176 l1.456 -1.512 l-0.504 0 l-1.008 1.064 q-0.056 -0.28 -0.056 -0.532 l0 -0.532 l0 -15.68 q0 -2.408 0.924 -4.564 t2.52 -3.752 t3.724 -2.52 t4.592 -0.924 l0 0.224 l0.224 -0.224 l1.4 0 l-1.624 1.624 l0 0.504 l2.072 -2.128 l1.4 0 l-3.472 3.528 l0 0.448 l3.976 -3.976 l1.4 0 l-5.376 5.376 l0 0.504 l5.88 -5.88 l1.4 0 l-7.28 7.28 l0 0.504 l7.784 -7.784 l0.056 0 l0.644 0 t0.644 0.056 l-7.784 7.784 l-1.344 0 q-1.624 0 -2.772 1.148 t-1.148 2.772 l0 15.68 z M8.008 45.416 q0.112 0.28 0.224 0.476 t0.224 0.476 l-5.6 5.544 q-0.168 -0.168 -0.308 -0.364 t-0.308 -0.42 z M8.68 46.647999999999996 q0.112 0.168 0.28 0.364 t0.392 0.308 l-5.544 5.6 l-0.728 -0.728 z M23.52 43.568 l6.384 6.328 q-0.112 0.168 -0.196 0.336 t-0.196 0.336 l-5.992 -6.048 l0 -0.28 l0 -0.672 z M29.848 42.28 l1.512 1.512 l0 0.448 l0 0.56 l-2.52 -2.52 l1.008 0 z M27.944 42.28 l3.304 3.36 q0 0.28 -0.112 0.84 l-4.2 -4.2 l1.008 0 z M26.04 42.28 l4.928 4.928 q-0.112 0.448 -0.224 0.784 l-5.712 -5.712 l1.008 0 z M30.744 42.28 l0.616 0 l0 0.616 z M21.112 47.824 q0.336 -0.056 0.672 -0.336 l5.6 5.6 q-0.224 0.112 -0.56 0.448 z M22.288 47.096000000000004 q0.336 -0.336 0.448 -0.504 l5.6 5.544 l-0.504 0.504 z M19.6 48.16 q0.28 0 0.84 -0.112 l5.88 5.88 q-0.448 0.224 -0.616 0.392 l-6.104 -6.104 l0 0.224 l-0.336 0.336 l0.28 0.28 l0.056 -0.112 l0 0.168 l5.544 5.488 l-0.672 0.336 l-4.872 -4.816 l0 0.224 l-0.336 0.336 l0.28 0.224 l0.056 -0.056 l0 0.168 l4.2 4.2 q-0.168 0.112 -0.336 0.14 t-0.392 0.14 l-3.472 -3.472 l0 0.224 l-0.336 0.336 l0.28 0.224 l0.056 -0.056 l0 0.112 l2.8 2.8 l-0.84 0.168 l-1.96 -1.96 l0 0.28 l-0.336 0.336 l0.28 0.224 l0.056 -0.056 l0 0.112 l1.176 1.176 q-0.28 0.056 -0.504 0.056 l-0.448 0 l-0.224 -0.224 l0 0.224 l-1.68 0 l-0.112 -0.056 l-0.056 0.056 l-1.736 0 l-0.056 -0.056 l-0.112 0.056 l-1.736 0 l-0.056 -0.056 l-0.112 0.056 l-1.736 0 l-0.056 -0.056 l-0.112 0.056 l-0.28 0 l-0.532 0 t-0.532 -0.056 l1.064 -1.008 l0 -0.392 l0.168 0.168 l0.448 -0.448 l-0.224 -0.224 l-1.904 1.848 q-0.28 -0.056 -0.588 -0.084 t-0.588 -0.14 l2.688 -2.632 l0 -0.392 l0.168 0.168 l0.448 -0.448 l-0.224 -0.224 l-3.472 3.472 q-0.28 -0.112 -0.532 -0.168 t-0.532 -0.168 l4.144 -4.144 l0 -0.392 l0.168 0.168 l0.448 -0.448 l-0.224 -0.224 l-4.872 4.872 q-0.448 -0.168 -0.952 -0.448 l5.432 -5.432 l0 -0.392 l0.168 0.224 l0.448 -0.448 l-0.224 -0.28 l-6.16 6.16 q-0.224 -0.112 -0.42 -0.252 t-0.42 -0.308 l5.824 -5.824 q0.28 0.056 0.784 0.056 l7.84 0 z M13.608 48.775999999999996 l0.224 0.28 l0.448 -0.448 l-0.224 -0.28 z M12.656 49.728 l0.224 0.224 l0.448 -0.392 l-0.224 -0.28 z M13.328 55.216 l-0.224 -0.224 l-0.448 0.448 l0.224 0.224 z M13.328 53.312 l-0.224 -0.224 l-0.448 0.448 l0.224 0.224 z M13.328 51.408 l-0.224 -0.224 l-0.448 0.448 l0.224 0.224 z M14.28 54.264 l-0.224 -0.224 l-0.448 0.448 l0.224 0.224 z M14.28 52.36 l-0.224 -0.224 l-0.448 0.448 l0.224 0.224 z M14.28 50.456 l-0.224 -0.224 l-0.448 0.448 l0.224 0.224 z M15.232 55.216 l-0.224 -0.224 l-0.448 0.448 l0.224 0.224 z M15.232 53.312 l-0.224 -0.224 l-0.448 0.448 l0.224 0.224 z M15.232 51.408 l-0.224 -0.224 l-0.448 0.448 l0.224 0.224 z M15.232 49.56 l-0.224 -0.28 l-0.448 0.448 l0.224 0.224 z M16.184 54.264 l-0.224 -0.224 l-0.448 0.448 l0.224 0.224 z M16.184 52.36 l-0.224 -0.224 l-0.448 0.448 l0.224 0.224 z M16.184 50.456 l-0.224 -0.224 l-0.448 0.448 l0.224 0.224 z M16.184 48.608 l-0.224 -0.28 l-0.448 0.448 l0.224 0.28 z M17.136 55.216 l-0.28 -0.224 l-0.392 0.448 l0.224 0.224 z M17.136 53.312 l-0.28 -0.224 l-0.392 0.448 l0.224 0.224 z M17.136 51.408 l-0.28 -0.224 l-0.392 0.448 l0.224 0.224 z M17.136 49.56 l-0.28 -0.28 l-0.392 0.448 l0.224 0.224 z M18.088 54.264 l-0.28 -0.224 l-0.448 0.448 l0.28 0.224 z M18.088 52.36 l-0.28 -0.224 l-0.448 0.448 l0.28 0.224 z M18.088 50.456 l-0.28 -0.224 l-0.448 0.448 l0.28 0.224 z M18.088 48.608 l-0.28 -0.28 l-0.448 0.448 l0.28 0.28 z M19.04 55.216 l-0.28 -0.224 l-0.448 0.448 l0.28 0.224 z M19.04 53.312 l-0.28 -0.224 l-0.448 0.448 l0.28 0.224 z M19.04 51.408 l-0.28 -0.224 l-0.448 0.448 l0.28 0.224 z M19.04 49.56 l-0.28 -0.28 l-0.448 0.448 l0.28 0.224 z M24.136 42.28 l6.384 6.328 q-0.112 0.28 -0.336 0.728 l-6.664 -6.664 l0 -0.392 l0.616 0 z M23.072 46.032 q0.168 -0.392 0.28 -0.728 l5.824 5.768 q-0.112 0.168 -0.224 0.308 t-0.224 0.252 z"/></g>
			</g>
		</svg>

