<?xml version="1.0" encoding="UTF-8" standalone="no"?>
<!DOCTYPE svg PUBLIC "-//W3C//DTD SVG 1.1//EN" "http://www.w3.org/Graphics/SVG/1.1/DTD/svg11.dtd">
<svg width="100%" height="100%" viewBox="0 0 2029 2676" version="1.1" xmlns="http://www.w3.org/2000/svg" xmlns:xlink="http://www.w3.org/1999/xlink" xml:space="preserve" xmlns:serif="http://www.serif.com/" style="fill-rule:evenodd;clip-rule:evenodd;stroke-linejoin:round;stroke-miterlimit:1.41421;">
<defs>
    <style>
        @import url("https://fonts.googleapis.com/css?family=Lato:400");
    </style>
</defs>
    <g>
        <path d="M373.405,213.073L1815.87,213.073L1815.87,1655.15C1815.87,1665.67 1814.85,1676.09 1812.8,1686.41C1810.74,1696.73 1807.7,1706.75 1803.67,1716.47C1799.65,1726.19 1794.71,1735.42 1788.86,1744.17C1783.02,1752.92 1776.37,1761.01 1768.93,1768.45C1761.49,1775.89 1753.39,1782.53 1744.64,1788.38C1735.89,1794.22 1726.66,1799.16 1716.93,1803.19C1707.21,1807.21 1697.19,1810.25 1686.87,1812.3C1676.55,1814.36 1666.12,1815.38 1655.6,1815.38L213.13,1815.38L213.13,373.304C213.13,352.056 217.197,331.617 225.331,311.987C233.464,292.356 245.045,275.028 260.074,260.004C275.102,244.979 292.435,233.401 312.07,225.27C331.706,217.139 352.151,213.073 373.405,213.073Z" style="fill:rgb(14,93,136);fill-rule:nonzero;"/>
        <path d="M885.601,1251.68C889.579,1253.27 892.961,1254.86 895.746,1256.45C898.531,1258.04 901.912,1259.63 905.891,1261.22L782.957,1384.12C780.57,1381.74 777.984,1379.55 775.199,1377.56C772.414,1375.57 769.828,1373.38 767.441,1371L885.601,1251.68ZM970.342,763.655L1135.05,598.992L1146.99,601.378L1158.92,603.765L1000.18,763.655L970.342,763.655ZM1145.79,779.166C1142.61,776.78 1139.62,774.791 1136.84,773.2C1134.06,771.609 1130.67,770.018 1126.69,768.427L1248.43,646.72C1251.62,649.107 1254.4,651.493 1256.79,653.879C1259.18,656.266 1261.96,658.652 1265.14,661.039L1145.79,779.166ZM1166.08,799.451C1162.9,793.883 1158.12,788.712 1151.76,783.939L1269.92,665.812C1273.1,668.198 1275.89,670.584 1278.27,672.971L1285.43,680.13L1166.08,799.451ZM1179.21,826.895C1177.62,822.917 1176.23,819.338 1175.03,816.156C1173.84,812.974 1172.45,809.394 1170.86,805.417L1290.21,686.096C1292.6,689.278 1294.78,692.062 1296.77,694.449C1298.76,696.835 1300.95,699.619 1303.34,702.801L1179.21,826.895ZM1347.5,830.474C1348.29,833.656 1348.69,839.225 1348.69,847.179L1348.69,888.942L1181.6,888.942L1181.6,847.179C1181.6,842.407 1181.2,838.827 1180.4,836.44L1306.92,709.96C1309.31,713.142 1311.49,716.125 1313.48,718.909C1315.47,721.694 1317.26,724.677 1318.85,727.858L1199.5,847.179L1210.24,847.179L1322.43,735.018C1324.03,738.995 1325.42,742.376 1326.61,745.16C1327.81,747.944 1329.2,751.325 1330.79,755.302L1240.08,847.179L1249.63,847.179L1334.37,763.655C1335.96,767.632 1337.15,771.411 1337.95,774.99C1338.75,778.57 1339.94,782.348 1341.53,786.326L1279.47,847.179L1290.21,847.179L1342.72,794.678C1344.32,801.042 1345.91,809.792 1347.5,820.929L1320.05,847.179L1330.79,847.179L1347.5,830.474ZM1090.89,763.655L1224.56,631.208C1227.75,632.799 1230.73,634.589 1233.52,636.578C1236.3,638.567 1239.28,640.754 1242.47,643.141L1118.34,766.041C1110.38,764.45 1103.62,763.655 1098.05,763.655L1090.89,763.655ZM1010.92,763.655L1167.28,606.151C1176.82,608.537 1184.38,611.322 1189.95,614.504L1040.76,763.655L1010.92,763.655ZM1051.5,763.655L1197.11,616.89C1201.09,618.481 1204.67,620.072 1207.86,621.663L1217.4,626.436L1080.15,763.655L1051.5,763.655ZM847.408,1181.28C847.408,1188.44 847.806,1193.61 848.601,1196.79L723.28,1322.08L712.539,1304.18L835.472,1181.28L824.731,1181.28L708.958,1297.02C704.98,1289.86 701.797,1283.1 699.41,1276.74L794.892,1181.28L784.151,1181.28L695.829,1269.58C694.238,1265.6 693.044,1261.82 692.249,1258.24C691.453,1254.66 690.259,1250.88 688.668,1246.9L754.312,1181.28L743.57,1181.28L686.281,1238.55L682.7,1213.5L713.732,1181.28L702.99,1181.28L681.507,1203.95C680.711,1199.97 680.313,1196.19 680.313,1192.61L680.313,1181.28L680.313,847.179C680.313,812.974 686.878,780.558 700.007,749.933C713.135,719.307 731.038,692.659 753.715,669.988C776.393,647.317 802.849,629.419 833.085,616.293C863.322,603.168 895.945,596.605 930.955,596.605L930.955,601.378L935.729,596.605L965.568,596.605L930.955,631.208L930.955,641.947L975.116,596.605L1004.95,596.605L930.955,671.778L930.955,681.323L1015.7,596.605L1045.53,596.605L930.955,711.153L930.955,721.892L1056.28,596.605L1086.11,596.605L930.955,751.723L930.955,762.461L1096.86,596.605L1111.78,596.605C1111.78,596.605 1116.35,597.003 1125.5,597.799L959.6,763.655L930.955,763.655C907.88,763.655 888.187,771.808 871.875,788.115C855.564,804.423 847.408,824.111 847.408,847.179L847.408,1181.28ZM850.988,1206.34C852.58,1210.31 854.171,1213.69 855.763,1216.48C857.354,1219.26 858.945,1222.64 860.537,1226.62L741.183,1344.75C738.796,1342.36 736.608,1339.78 734.619,1336.99C732.63,1334.21 730.442,1331.23 728.055,1328.04L850.988,1206.34ZM865.311,1232.59C866.902,1234.97 868.891,1237.56 871.278,1240.34C873.665,1243.13 876.45,1245.31 879.633,1246.9L761.473,1366.23L745.958,1350.71L865.311,1232.59ZM1181.6,1166.96L1317.66,1301.79C1316.07,1304.18 1314.68,1306.57 1313.48,1308.95C1312.29,1311.34 1310.9,1313.72 1309.31,1316.11L1181.6,1187.24L1181.6,1181.28L1181.6,1166.96ZM1316.47,1139.52L1348.69,1171.73L1348.69,1193.21L1294.98,1139.52L1316.47,1139.52ZM1275.89,1139.52L1346.3,1211.11C1346.3,1215.09 1345.51,1221.05 1343.92,1229.01L1254.4,1139.52L1275.89,1139.52ZM1235.31,1139.52L1340.34,1244.52C1338.75,1250.88 1337.15,1256.45 1335.56,1261.22L1213.82,1139.52L1235.31,1139.52ZM1335.56,1139.52L1348.69,1139.52L1348.69,1152.64L1335.56,1139.52ZM1130.28,1257.64C1135.05,1256.85 1139.82,1254.46 1144.6,1250.48L1263.95,1369.81C1260.77,1371.4 1256.79,1374.58 1252.02,1379.35L1130.28,1257.64ZM1155.34,1242.13C1160.11,1237.36 1163.3,1233.78 1164.89,1231.39L1284.24,1349.52L1273.5,1360.26L1155.34,1242.13ZM1098.05,1264.8C1102.03,1264.8 1108,1264.01 1115.95,1262.42L1241.27,1387.7C1234.91,1390.88 1230.53,1393.67 1228.14,1396.06L1098.05,1266L1098.05,1270.77L1090.89,1277.93L1096.86,1283.89L1098.05,1281.51L1098.05,1285.09L1216.21,1402.02L1201.89,1409.18L1098.05,1306.57L1098.05,1311.34L1090.89,1318.5L1096.86,1323.27L1098.05,1322.08L1098.05,1325.66L1187.57,1415.15C1185.18,1416.74 1182.79,1417.73 1180.4,1418.13C1178.02,1418.53 1175.23,1419.52 1172.05,1421.11L1098.05,1347.13L1098.05,1351.91L1090.89,1359.07L1096.86,1363.84L1098.05,1362.64L1098.05,1365.03L1157.73,1424.69L1139.82,1428.27L1098.05,1386.51L1098.05,1392.48L1090.89,1399.63L1096.86,1404.41L1098.05,1403.21L1098.05,1405.6L1123.11,1430.66C1119.13,1431.45 1115.56,1431.85 1112.37,1431.85L1102.82,1431.85L1098.05,1427.08L1098.05,1431.85L1062.24,1431.85L1059.86,1430.66L1058.66,1431.85L1021.66,1431.85L1020.47,1430.66L1018.08,1431.85L981.083,1431.85L979.89,1430.66L977.503,1431.85L940.503,1431.85L939.31,1430.66L936.923,1431.85L930.955,1431.85L919.616,1431.85C919.616,1431.85 915.837,1431.45 908.278,1430.66L930.955,1409.18L930.955,1400.83L934.536,1404.41L944.084,1394.86L939.31,1390.09L898.73,1429.46C894.751,1428.67 890.574,1428.07 886.198,1427.67C881.821,1427.28 877.644,1426.28 873.665,1424.69L930.955,1368.61L930.955,1360.26L934.536,1363.84L944.084,1354.29L939.31,1349.52L865.311,1423.5C861.332,1421.91 857.553,1420.71 853.972,1419.92C850.392,1419.12 846.612,1417.93 842.634,1416.34L930.955,1328.04L930.955,1319.69L934.536,1323.27L944.084,1313.72L939.31,1308.95L835.472,1412.76C829.107,1410.37 822.344,1407.19 815.182,1403.21L930.955,1287.47L930.955,1279.12L934.536,1283.89L944.084,1274.35L939.31,1268.38L808.021,1399.63C804.838,1398.04 801.855,1396.25 799.07,1394.27C796.285,1392.28 793.301,1390.09 790.118,1387.7L914.246,1263.61C918.224,1264.4 923.794,1264.8 930.955,1264.8L1098.05,1264.8L1098.05,1264.8ZM970.342,1277.93L975.116,1283.89L984.664,1274.35L979.89,1268.38L970.342,1277.93ZM950.052,1298.21L954.826,1302.99L964.374,1294.63L959.6,1288.67L950.052,1298.21ZM964.374,1415.15L959.6,1410.37L950.052,1419.92L954.826,1424.69L964.374,1415.15ZM964.374,1374.58L959.6,1369.81L950.052,1379.35L954.826,1384.12L964.374,1374.58ZM964.374,1334.01L959.6,1329.24L950.052,1338.78L954.826,1343.55L964.374,1334.01ZM984.664,1394.86L979.89,1390.09L970.342,1399.63L975.116,1404.41L984.664,1394.86ZM984.664,1354.29L979.89,1349.52L970.342,1359.07L975.116,1363.84L984.664,1354.29ZM984.664,1313.72L979.89,1308.95L970.342,1318.5L975.116,1323.27L984.664,1313.72ZM1004.95,1415.15L1000.18,1410.37L990.632,1419.92L995.406,1424.69L1004.95,1415.15ZM1004.95,1374.58L1000.18,1369.81L990.632,1379.35L995.406,1384.12L1004.95,1374.58ZM1004.95,1334.01L1000.18,1329.24L990.632,1338.78L995.406,1343.55L1004.95,1334.01ZM1004.95,1294.63L1000.18,1288.67L990.632,1298.21L995.406,1302.99L1004.95,1294.63ZM1025.24,1394.86L1020.47,1390.09L1010.92,1399.63L1015.7,1404.41L1025.24,1394.86ZM1025.24,1354.29L1020.47,1349.52L1010.92,1359.07L1015.7,1363.84L1025.24,1354.29ZM1025.24,1313.72L1020.47,1308.95L1010.92,1318.5L1015.7,1323.27L1025.24,1313.72ZM1025.24,1274.35L1020.47,1268.38L1010.92,1277.93L1015.7,1283.89L1025.24,1274.35ZM1045.53,1415.15L1039.57,1410.37L1031.21,1419.92L1035.99,1424.69L1045.53,1415.15ZM1045.53,1374.58L1039.57,1369.81L1031.21,1379.35L1035.99,1384.12L1045.53,1374.58ZM1045.53,1334.01L1039.57,1329.24L1031.21,1338.78L1035.99,1343.55L1045.53,1334.01ZM1045.53,1294.63L1039.57,1288.67L1031.21,1298.21L1035.99,1302.99L1045.53,1294.63ZM1065.82,1394.86L1059.86,1390.09L1050.31,1399.63L1056.28,1404.41L1065.82,1394.86ZM1065.82,1354.29L1059.86,1349.52L1050.31,1359.07L1056.28,1363.84L1065.82,1354.29ZM1065.82,1313.72L1059.86,1308.95L1050.31,1318.5L1056.28,1323.27L1065.82,1313.72ZM1065.82,1274.35L1059.86,1268.38L1050.31,1277.93L1056.28,1283.89L1065.82,1274.35ZM1086.11,1415.15L1080.15,1410.37L1070.6,1419.92L1076.57,1424.69L1086.11,1415.15ZM1086.11,1374.58L1080.15,1369.81L1070.6,1379.35L1076.57,1384.12L1086.11,1374.58ZM1086.11,1334.01L1080.15,1329.24L1070.6,1338.78L1076.57,1343.55L1086.11,1334.01ZM1086.11,1294.63L1080.15,1288.67L1070.6,1298.21L1076.57,1302.99L1086.11,1294.63ZM1194.73,1139.52L1330.79,1274.35C1329.2,1278.33 1326.81,1283.5 1323.63,1289.86L1181.6,1147.87L1181.6,1139.52L1194.73,1139.52ZM1172.05,1219.46C1174.44,1213.89 1176.42,1208.72 1178.02,1203.95L1302.14,1326.85C1300.55,1329.24 1298.96,1331.42 1297.37,1333.41C1295.78,1335.4 1294.19,1337.19 1292.6,1338.78L1172.05,1219.46Z" style="fill:white;fill-rule:nonzero;"/>
        <g transform="matrix(1.05125,0,0,1.02595,-55.8504,-112.448)">
            <text x="242.63px" y="2428.95px" style="font-family:'Lato-Regular', 'Lato', sans-serif;font-size:427px;fill:rgb(59,59,59);">Caplena</text>
        </g>
    </g>
</svg>
