<?xml version="1.0" encoding="UTF-8"?>
<svg width="120" height="120" version="1.1" viewBox="0 0 120 120" xmlns="http://www.w3.org/2000/svg" xmlns:xlink="http://www.w3.org/1999/xlink">
    <!--Generated by IJSVG (https://github.com/curthard89/IJSVG)-->
    <g transform="scale(5)">
        <g fill="none" stroke="#FFFFFF" stroke-linecap="round" stroke-linejoin="round" stroke-width="1">
            <path d="M10,10.5h-10l5,-10.5Z" transform="translate(13.5, 13)"></path>
            <path d="M0,0v3" transform="translate(18.5, 17)"></path>
            <g fill="none" stroke="#FFFFFF">
                <path stroke-width="0.5" d="M0.5,0c-0.276,0 -0.5,0.224 -0.5,0.5c0,0.276 0.224,0.5 0.5,0.5c0.275,0 0.5,-0.224 0.5,-0.5c0,-0.276 -0.225,-0.5 -0.5,-0.5v0Z" transform="translate(18, 21)"></path>
            </g>
        </g>
        <g fill="none" stroke="#FFFFFF" stroke-linejoin="round" stroke-width="1">
            <path stroke-linecap="round" d="M0,0h10.12" transform="translate(1.9, 17.5)"></path>
            <path d="M0,0h18.99" transform="translate(2.51, 5.5)"></path>
            <path stroke-linecap="round" d="M22.99,0h-22.99" transform="translate(0.51, 11.5)"></path>
            <path stroke-linecap="round" d="M10.878,22.984c-6.063,-0.324 -10.878,-5.34 -10.878,-11.484c0,-6.352 5.148,-11.5 11.5,-11.5c6.185,0 11.237,4.879 11.5,11" transform="translate(0.5, 0.5)"></path>
            <path stroke-linecap="round" d="M6,0c-6,6.5 -5.892,14.958 0.108,22.958" transform="translate(5.27, 0.526)"></path>
            <path stroke-linecap="round" d="M0,0c3.015,3.266 4.486,7.025 4.445,10.974" transform="translate(12.73, 0.526)"></path>
        </g>
        <path fill="none" d="M0,0h24v24h-24Z"></path>
    </g>
</svg>
